<?xml version="1.0" encoding="utf-8"?>
<!-- Generator: Adobe Illustrator 16.0.4, SVG Export Plug-In . SVG Version: 6.00 Build 0)  -->
<!DOCTYPE svg PUBLIC "-//W3C//DTD SVG 1.0//EN" "http://www.w3.org/TR/2001/REC-SVG-20010904/DTD/svg10.dtd">
<svg version="1.0" id="Ebene_1" xmlns="http://www.w3.org/2000/svg" xmlns:xlink="http://www.w3.org/1999/xlink" x="0px" y="0px"
	 width="13px" height="13px" viewBox="0 0 13 13" enable-background="new 0 0 13 13" xml:space="preserve">
<g id="Page-1">
	<g id="Festivalliste---Sprint-1" transform="translate(-344.000000, -76.000000)">
		<g id="Group" transform="translate(8.000000, 65.000000)">
			<g id="search-solid-copy-2" transform="translate(336.000000, 11.000000)">
				<path id="Shape" fill="#0B161F" d="M12.823,11.239l-2.532-2.531C10.178,8.594,10.022,8.53,9.859,8.53H9.445
					c0.701-0.896,1.118-2.023,1.118-3.25C10.563,2.364,8.199,0,5.282,0S0,2.364,0,5.281c0,2.917,2.364,5.281,5.282,5.281
					c1.227,0,2.354-0.417,3.25-1.117v0.414c0,0.162,0.064,0.317,0.178,0.432l2.532,2.53c0.239,0.239,0.624,0.239,0.86,0l0.719-0.718
					C13.06,11.863,13.06,11.479,12.823,11.239z M5.282,8.53c-1.795,0-3.25-1.452-3.25-3.25c0-1.795,1.453-3.25,3.25-3.25
					c1.794,0,3.25,1.452,3.25,3.25C8.531,7.076,7.08,8.53,5.282,8.53z"/>
			</g>
		</g>
	</g>
</g>
</svg>
