<svg>
    <g id="Page-1" stroke="none" stroke-width="1" fill="none" fill-rule="evenodd">
        <g id="Festivalliste---Sprint-1" transform="translate(-344.000000, -76.000000)" fill="#0B161F" fill-rule="nonzero">
            <g id="Group" transform="translate(8.000000, 65.000000)">
                <g id="search-solid-copy-2" transform="translate(336.000000, 11.000000)">
                    <path d="M12.8232036,11.2393321 L10.2915731,8.70813397 C10.1773069,8.59388732 10.0224128,8.53041695 9.85990088,8.53041695 L9.44600342,8.53041695 C10.1468359,7.63421541 10.5632726,6.50698174 10.5632726,5.2807343 C10.5632726,2.36363636 8.19923254,0 5.28163632,0 C2.3640401,0 0,2.36363636 0,5.2807343 C0,8.19783224 2.3640401,10.5614686 5.28163632,10.5614686 C6.50809322,10.5614686 7.63551943,10.145103 8.53187406,9.4443902 L8.53187406,9.85821697 C8.53187406,10.0207011 8.59535526,10.1755688 8.70962143,10.2898154 L11.2412519,12.8210136 C11.4799413,13.0596621 11.865907,13.0596621 12.1020571,12.8210136 L12.8206643,12.102529 C13.0593537,11.8638805 13.0593537,11.4779807 12.8232036,11.2393321 Z M5.28163632,8.53041695 C3.48638782,8.53041695 2.03139859,7.07821502 2.03139859,5.2807343 C2.03139859,3.4857924 3.48384857,2.03105166 5.28163632,2.03105166 C7.07688482,2.03105166 8.53187406,3.48325359 8.53187406,5.2807343 C8.53187406,7.0756762 7.07942407,8.53041695 5.28163632,8.53041695 Z" id="Shape"></path>
                </g>
            </g>
        </g>
    </g>
</svg>